{"title":"Lachimdeviki O Lekkundhi 2016 CAM Telugu Movies xviD-TvMovize.mp","uid":13927094,"size":909064029,"categoryP":"video","categoryS":"movies","magnet":"?xt=urn:btih:de46683d3fe87af007d986ffd9788f7ae53efcef&amp;dn=Lachimdeviki+O+Lekkundhi+2016+CAM+Telugu+Movies+xviD-TvMovize.mp&amp;tr=udp%3A%2F%2Ftracker.leechers-paradise.org%3A6969&amp;tr=udp%3A%2F%2Fzer0day.ch%3A1337&amp;tr=udp%3A%2F%2Fopen.demonii.com%3A1337&amp;tr=udp%3A%2F%2Ftracker.coppersurfer.tk%3A6969&amp;tr=udp%3A%2F%2Fexodus.desync.com%3A6969","seeders":1,"leechers":1,"uploader":"TvMovize","files":1,"time":1458390647,"description":"Lachimdeviki O Lekkundhi 2016 CAM Telugu Movies xviD-TvMovize.mp4\r\n\r\n++ ScreenShots ++\r\n \nhttp://www.image2be.com/movie/Lachimdeviki O Lekkundhi/1.html  \nhttp://www.image2be.com/movie/Lachimdeviki O Lekkundhi/2.html  \nhttp://www.image2be.com/movie/Lachimdeviki O Lekkundhi/3.html  \nhttp://www.image2be.com/movie/Lachimdeviki O Lekkundhi/4.html  \nhttp://www.image2be.com/movie/Lachimdeviki O Lekkundhi/5.html \r\n\r\n++ Info ++\r\n\r\nFormat : MPEG-4 \r\nFormat profile : Base Media \r\nCodec ID : isom (isom/iso2/avc1/mp41) \r\nFile size : 867 MiB \r\nDuration : 1h 43mn \r\nOverall bit rate : 1 166 Kbps \r\nWriting application : Lavf57.20.100 \r\n\r\nVideo \r\nID : 1 \r\nFormat : AVC \r\nFormat/Info : Advanced Video Codec \r\nFormat profile :    \r\nFormat settings, CABAC : Yes \r\nFormat settings, ReFrames : 4 frames \r\nCodec ID : avc1 \r\nCodec ID/Info : Advanced Video Coding \r\nDuration : 1h 43mn \r\nBit rate : 1 050 Kbps \r\nWidth : 640 pixels \r\nHeight : 264 pixels \r\nDisplay aspect ratio : 2.40:1 \r\nFrame rate mode : Variable \r\nFrame rate : 25.000 fps \r\nMinimum frame rate : 16.393 fps \r\nMaximum frame rate : 25.000 fps \r\nColor space : YUV \r\nChroma subsampling : 4:2:0 \r\nBit depth : 8 bits \r\nScan type : Progressive \r\nBits/(Pixel*Frame) : 0.249 \r\nStream size : 778 MiB (90%) \r\nWriting library : x264 core 112 \r\nEncoding settings : cabac=1 / ref=2 / deblock=1:0:0 / analyse=0x1:0x111 / me=hex / subme=6 / psy=1 / psy_rd=1.00:0.00 / mixed_ref=0 / me_range=16 / chroma_me=1 / trellis=0 / 8x8dct=0 / cqm=0 / deadzone=21,11 / fast_pskip=1 / chroma_qp_offset=-2 / threads=12 / sliced_threads=0 / nr=0 / decimate=1 / interlaced=0 / constrained_intra=0 / bframes=2 / b_pyramid=2 / b_adapt=1 / b_bias=0 / direct=1 / weightb=0 / open_gop=0 / weightp=2 / keyint=250 / keyint_min=25 / scenecut=40 / intra_refresh=0 / rc_lookahead=40 / rc=abr / mbtree=1 / bitrate=1050 / ratetol=1.0 / qcomp=0.60 / qpmin=3 / qpmax=51 / qpstep=4 / ip_ratio=1.40 / aq=1:1.00 \r\nLanguage : English \r\nColor range : Limited \r\nColor primaries : BT.709 \r\nTransfer characteristics : BT.709 \r\nMatrix coefficients : BT.709 \r\n\r\nAudio \r\nID : 2 \r\nFormat : AAC \r\nFormat/Info : Advanced Audio Codec \r\nFormat profile : LC \r\nCodec ID : 40 \r\nDuration : 1h 43mn \r\nBit rate mode : Constant \r\nBit rate : 112 Kbps \r\nChannel(s) : 2 channels \r\nChannel positions : Front: L R \r\nSampling rate : 48.0 KHz \r\nFrame rate : 46.875 fps (1024 spf) \r\nCompression mode : Lossy \r\nStream size : 83.3 MiB (10%) \r\nDefault : Yes \r\nAlternate group : 1","torrent":{"xt":"urn:btih:de46683d3fe87af007d986ffd9788f7ae53efcef","amp;dn":"Lachimdeviki+O+Lekkundhi+2016+CAM+Telugu+Movies+xviD-TvMovize.mp","amp;tr":["udp%3A%2F%2Ftracker.leechers-paradise.org%3A6969","udp%3A%2F%2Fzer0day.ch%3A1337","udp%3A%2F%2Fopen.demonii.com%3A1337","udp%3A%2F%2Ftracker.coppersurfer.tk%3A6969","udp%3A%2F%2Fexodus.desync.com%3A6969"],"infoHash":"de46683d3fe87af007d986ffd9788f7ae53efcef","infoHashBuffer":{"type":"Buffer","data":[222,70,104,61,63,232,122,240,7,217,134,255,217,120,143,122,229,62,252,239]},"announce":[],"urlList":[]}}